<svg xmlns="http://www.w3.org/2000/svg" fill="currentColor" viewBox="0 0 512 512"><defs><clipPath id="a"><path d="M195 124h142v313H195z"/></clipPath><clipPath id="b"><path d="M476.23 196.99 315.01 476.23 35.77 315.01 196.99 35.77z"/></clipPath></defs><g clip-path="url(#a)"><g clip-path="url(#b)"><path d="M278.55 436.16c1.102-.285 2.266-1.82 2.676-3.055 3.273-9.898 6.605-19.789 9.469-29.812 4.093-14.336 8.343-28.562 14.32-42.289 7.457-17.125 14.324-34.508 21.28-51.848 3.57-8.898 6.817-17.922 10.11-26.926.316-.863-.094-1.996-.168-3.004-.97.371-1.95.723-2.91 1.122-.38.156-.715.417-1.067.632-8.672 5.32-17.328 10.664-26.031 15.93-1.008.61-2.36.645-3.379 1.246-1.383.813-2.594 1.915-3.855 2.875-.438-3.878-1.196-7.316-1.145-10.746.137-9.433.555-18.867.965-28.293.48-11.082.277-22.27 1.77-33.215 4.124-30.19 9.218-60.238 17.87-89.55.797-2.696 1.313-5.528 2.504-8.036 1.309-2.746-.578-4.3-1.742-5.965-1.133-1.613-2.926-.914-4.504-.128-3.48 1.718-7.039 3.269-10.484 5.05-2.344 1.211-4.652 2.543-6.78 4.098-1.938 1.414-3.544 3.277-5.423 4.785-1.539 1.235-3.344 2.13-4.89 3.352-7.907 6.246-15.871 12.426-23.566 18.918-1.715 1.445-2.696 1.086-4.239.367-16.199-7.547-32.457-14.941-49.797-19.801l1.285-.941c-4.722-.727-9.085-1.442-13.469-2.024-.593-.078-1.558.363-1.84.856-.261.46.02 1.375.298 1.972.625 1.344 1.593 2.551 2.074 3.93 2.972 8.504 6.027 16.984 8.699 25.582 2.406 7.742 4.793 15.54 6.43 23.465 3.672 17.805 6.726 35.734 10.305 53.562 3.074 15.336 5.687 30.785 10.527 45.723.824 2.54 1.078 5.262 1.707 8.457-7.258-1.996-13.852-3.871-20.48-5.61-4.953-1.3-9.938-2.5-14.953-3.542-.766-.16-2.227.574-2.5 1.25-.262.64.511 1.808 1.027 2.617.371.57 1.281.812 1.602 1.39 1.668 3.043 3.23 6.145 4.816 9.231 5.488 10.664 10.824 21.406 16.488 31.973 6.371 11.879 13.109 23.559 19.543 35.406 5.328 9.809 10.148 19.902 15.746 29.547 5.805 10 12.242 19.633 18.52 29.348.68 1.031 2.348 2.324 3.191 2.102zm52.43-151.11c.164.082.332.164.496.25-.68 2.21-1.36 4.418-2.129 6.922-1.695-.598-3.246-1.148-5.176-1.832 2.453-1.922 4.63-3.633 6.809-5.34zm-13.219 9.512c2.106-1.742 7.398-1.602 9.406.375.305.297.446 1.062.29 1.469-.512 1.367-1.192 2.675-1.817 4.03l-7.879-5.874zm-8.426 5.379c4.551-3.575 4.543-3.563 9.051-.895 1.422.844 2.856 1.695 4.371 2.356 1.574.691 1.91 1.648 1.184 3.136-.54 1.102-1.02 2.235-1.7 3.739-4.343-2.797-8.527-5.504-12.905-8.336zm1.281-166.12c1.165-.254 2.325-.504 3.825-.829-.274 1.032-.465 1.762-.707 2.676-1.188-.492-2.192-.91-3.204-1.324.032-.176.06-.351.086-.523zm2.282 4.836c-.22.921-.426 1.878-.676 2.824-.121.457-.328.898-.567 1.523-3.144-1.273-6.156-2.492-9.222-3.73 3.133-3.551 3.703-3.578 10.465-.618zm-10.566 4.12c2.043.891 4.07 1.848 6.18 2.548 1.925.636 2.773 1.55 1.859 3.585-.36.793-.512 1.684-.766 2.555-.473-.101-.726-.101-.93-.207-4.359-2.32-8.71-4.648-13.074-6.984 2.813-3.008 3.13-3.063 6.73-1.496zm-14.566 7.196c2.496-3.508 4.172-3.953 8.043-1.918a498.007 498.007 0 0 1 11.543 6.246c.488.273 1.023 1.14.941 1.637-.305 1.847-.852 3.652-1.473 6.117a39762.3 39762.3 0 0 0-19.055-12.082zm-4.063 3.21c.492-.316 1.582-.179 2.149.165 4.515 2.726 8.945 5.601 13.465 8.324 2.023 1.223 4.199 2.195 6.68 3.48-.325 1.657-.727 3.7-1.2 6.133-8.75-4.78-17.176-9.379-26.059-14.23 1.973-1.574 3.383-2.851 4.965-3.87zm-7.383 5.95c.29-.16 1.008.367 1.489.645 7.808 4.48 15.57 9.046 23.449 13.406 1.957 1.082 3.375 1.925 2.32 4.445-.402.96-.43 2.086-.738 3.73-9.793-8.187-20.793-13.316-32.484-18.574 2.168-1.355 4.023-2.582 5.964-3.652zm-12.91 8.027c2.39-1.996 4.633-1.625 7.246-.36 9.375 4.548 18.703 9.153 27.23 15.204.336.238.7.441 1.063.637 3.734 2.011 3.84 2.336 2.027 6.941-12.62-7.531-25.082-14.969-37.566-22.422zm-48.242-18.137c11.652 4.715 23.5 9.059 34.781 14.551 10.016 4.88 19.395 11.06 29.012 16.738 6.614 3.907 13.145 7.946 19.727 11.898 1.364.817 2.028 1.82 1.59 3.477-.336 1.27-.476 2.586-.793 4.398-30.977-19.805-63.336-36.492-95.027-54.62 3.578 1.171 7.235 2.148 10.711 3.558zm93.906 154.41c1.934 1.098 3.723 2.457 5.649 3.575 2.047 1.187 4.176 2.234 6.648 3.543-.613 1.496-1.285 3.152-2.125 5.203-6.226-3.594-12.203-7.047-18.21-10.516 2.628-2.95 5.038-3.508 8.038-1.805zm-99.617-143.07c-1.27-3.214-2.386-6.492-3.652-9.996 3.883 1.961 7.727 3.707 11.383 5.785 11.805 6.704 23.512 13.586 35.32 20.285 5.176 2.938 10.562 5.5 15.75 8.418 7.266 4.09 14.449 8.336 21.637 12.57 2.496 1.47 4.848 3.18 7.344 4.649 1.32.777 1.879 1.617 1.504 3.187-.418 1.739-.594 3.536-.95 5.766-4.722-2.39-9.234-4.422-13.504-6.879-20.156-11.605-40.238-23.344-60.363-35-4.222-2.445-8.535-4.746-12.773-7.168-.667-.383-1.433-.953-1.695-1.617zm23.98 26.504c-5.992-3.52-11.984-7.047-17.867-10.738-1.11-.695-1.968-2.105-2.472-3.37-.848-2.13-1.317-4.407-2.176-7.43 3.664 2.093 6.68 3.828 9.703 5.543 19.496 11.07 38.969 22.172 58.5 33.18 5.473 3.085 11.086 5.918 16.68 8.78 1.164.594 1.535 1.196 1.25 2.485-.48 2.172-.762 4.387-1.188 6.957-5.582-3.117-10.828-6.074-16.094-8.984-6.003-3.324-12.07-6.531-18.027-9.938-9.476-5.43-18.89-10.953-28.309-16.484zm-15.96 1.5c-.993-2.773-1.723-5.64-2.544-8.441 26.84 15.219 53.566 30.367 80.461 45.617-.148 1.273-.316 2.64-.488 4.098-3.004-1.496-5.797-2.907-8.61-4.286-15.292-7.5-30.604-14.96-45.405-23.422-6.961-3.976-14.258-7.37-21.344-11.133-.883-.476-1.73-1.484-2.07-2.433zm2.773 12.641c-.57-2.144-.934-4.343-1.535-7.32 15.68 8.57 30.578 16.828 45.609 24.852 4.726 2.523 9.835 4.32 14.703 6.594 4.19 1.96 8.257 4.191 12.44 6.172 2.235 1.058 3.657 2.32 3.063 5.097-.34 1.586-.219 3.278-.32 5.262-2.844-1.433-5.508-2.676-8.075-4.09-8.257-4.547-16.422-9.27-24.73-13.723-13.203-7.078-26.496-13.984-39.723-21.02-.636-.343-1.25-1.129-1.433-1.824zm2.773 13.812c-.633-2.714-1.11-5.464-1.691-8.472 6.734 3.574 13.094 7.062 19.55 10.355 7.743 3.941 15.595 7.656 23.349 11.574 4.644 2.347 9.168 4.937 13.793 7.324 1.68.863 3.586 1.293 5.234 2.207 3.504 1.945 6.914 4.066 10.332 6.164.277.172.477.695.473 1.055-.028 3.433-.11 6.87-.172 10.41-13.547-8.16-26.648-16.367-40.062-24.023-9.613-5.489-19.656-10.227-29.488-15.332-.524-.278-1.2-.762-1.317-1.262zm12.582 18.77c-2.777-1.632-5.7-3.015-8.504-4.601-.73-.414-1.629-1.074-1.816-1.79-.621-2.386-.957-4.843-1.504-7.824 2.078 1.02 3.785 1.754 5.39 2.665 16.415 9.293 32.825 18.59 49.204 27.945 4.875 2.785 9.656 5.738 14.445 8.675.468.29.976.98.976 1.485.004 2.879-.144 5.761-.246 8.652-6.3-4.219-12.676-7.937-18.422-12.449-12.105-9.504-26.418-15.055-39.523-22.758zm25.562 27.094c-9.668-5.761-19-12.137-28.945-17.352-5.117-2.683-5.195-6.636-5.851-11.297.925.395 1.62.625 2.25.97 11.707 6.343 23.562 12.437 35.047 19.163 7.113 4.164 13.664 9.285 20.453 13.996 2.37 1.645 4.582 3.563 7.082 4.965 2.12 1.191 2.601 2.75 2.316 4.898-.117.887-.07 1.793-.11 3.043-2.898-1.578-5.574-2.98-8.199-4.484-8.023-4.606-16.086-9.164-24.043-13.902zm-30.887-5.25c-.832-3.66-1.543-7.347-2.433-11.73 4.257 2.684 7.734 5.032 11.352 7.133 13.668 7.934 27.383 15.781 41.078 23.668 3.582 2.063 7.093 4.258 10.754 6.168 1.945 1.016 2.918 2.235 2.566 4.453-.152.953-.082 1.938-.125 3.196-5.695-3.57-10.961-7.344-16.641-10.332-9.29-4.891-18.824-9.32-28.301-13.848-5.598-2.672-11.285-5.149-16.922-7.739-.496-.23-1.234-.566-1.328-.969zm1.89 10.938c-.628-2.187-.82-4.5-1.257-7.168 2.902 1.18 5.445 2.102 7.887 3.235 8.18 3.789 16.516 7.3 24.438 11.578 9.449 5.101 18.559 10.844 27.762 16.39 4.113 2.485 3.675 6.821 4.214 11.392-3.882-2.172-7.375-4.137-10.875-6.086-12.938-7.211-25.84-14.488-38.852-21.574-3.546-1.934-7.468-3.16-11.098-4.953-.984-.48-1.906-1.73-2.218-2.813zm3.188 15.293c-.781-3.023-1.426-6.086-2.285-9.87 30.055 13.167 56.848 30.913 85.035 46.472-.836 1.934-1.543 3.57-2.394 5.531-2.813-1.468-5.454-2.796-8.043-4.218-8.918-4.899-17.703-10.062-26.762-14.695-14.656-7.493-29.488-14.637-44.234-21.953-.532-.262-1.188-.758-1.317-1.266zm2.555 11.238c-.54-2.05-.926-4.136-1.45-6.586 1.048.446 1.712.684 2.345 1 15.004 7.524 30.062 14.945 44.988 22.63 9.921 5.113 19.656 10.585 29.438 15.972.515.282 1.023 1.356.882 1.899-.445 1.738-1.191 3.398-1.78 4.976-13.923-8.007-27.528-16.125-41.427-23.707-7.68-4.187-15.855-7.46-23.797-11.168a310.415 310.415 0 0 1-8.035-3.89c-.473-.23-1.047-.676-1.164-1.125zm.836 6.825-.121-2.27c12.418 5.984 24.828 11.543 36.836 17.875 12.035 6.344 23.656 13.461 35.723 20.391l-2.563 5.785c-23.508-12.824-45.238-28.355-70.184-38.848 1.121-.91 1.75-1.422 2.864-2.32-1.196-.29-1.82-.438-2.555-.613zm-8.254 7.101c.031-.098.059-.191.094-.289 1.632.465 3.242 1.059 4.906 1.371 1.441.27 3.082.645 4.387.211 1.656-.55 2.761-.117 4.128.617 7.497 4.043 15.121 7.844 22.543 12.016 10.59 5.953 21.023 12.188 31.566 18.23 2.993 1.711 6.133 3.164 9.47 4.871-.977 2.305-1.993 4.7-3.286 7.762-24.746-15.02-49.277-29.902-73.809-44.789zm13.953 19.27c-9.922-5.992-19.738-12.152-29.625-18.199-1.41-.863-2.887-1.652-4.422-2.246-2.836-1.094-4.48-3.254-6.055-6.32 4.371.914 8.29 1.578 11.848 3.8 2.934 1.833 6.297 2.973 9.27 4.747 15.078 8.976 30.082 18.082 45.14 27.102 6.747 4.043 13.583 7.937 20.337 11.969 4.035 2.41 7.992 4.96 12.176 7.566l-1.965 4.996c-3.25-1.75-6.406-3.3-9.418-5.094-15.789-9.406-31.559-18.82-47.285-28.32zm-28.598-5.672c-2.023-3.66-3.938-7.386-6.094-11.48 30.117 18.238 59.75 36.184 89.691 54.312-.613 1.328-1.383 3.004-2.031 4.41-11.156-6.472-22.141-12.758-33.043-19.184-10.84-6.394-21.551-13.004-32.41-19.367-4.711-2.761-9.64-5.136-14.473-7.691-.57-.309-1.375-.516-1.64-1zm35.125 30.363c-6.895-3.941-13.617-8.187-20.422-12.293-.566-.34-1.133-.789-1.754-.914-6.367-1.328-6.816-7.515-9.96-11.48l.421-.48c25.648 14.832 51.297 29.668 77.117 44.602l-2.172 5.82c-5.703-3.617-11.102-7.309-16.754-10.566-8.742-5.043-17.715-9.68-26.477-14.688zm25.84 27.602a4232.718 4232.718 0 0 0-30.613-18.94c-3.95-2.419-8.02-4.637-12-7-.676-.403-1.379-.977-1.75-1.645-1.992-3.606-3.883-7.27-6.074-11.418 1.054.468 1.699.672 2.254 1.015 4.574 2.832 9.066 5.813 13.715 8.508 6.297 3.649 12.762 7.004 19.074 10.63 8.53 4.894 16.984 9.925 25.469 14.905.425.25.824.555 1.21.86 1.66 1.316 4.528 2.507 4.688 3.992.258 2.398-1.27 4.984-2.187 7.957-4.891-3.149-9.301-6.063-13.785-8.864zm-33.73-12.352c-3.805-1.636-5.2-5.07-6.52-8.761 4.559 2.832 9.098 5.695 13.676 8.488 9.54 5.812 19.105 11.57 28.645 17.383 3.18 1.937 6.336 3.918 9.407 6.023.527.36.87 1.473.773 2.16-.195 1.371-.758 2.692-1.234 4.25-.672-.316-1.282-.52-1.797-.867a42085.809 42085.809 0 0 1-38.387-25.684c-1.516-1.008-2.918-2.281-4.563-2.992zm5.187 13.172c-1.796-3.008-3.328-6.172-5.316-9.926 6.64 4.727 12.551 9.18 18.707 13.254 7.438 4.922 15.043 9.602 22.68 14.211 1.977 1.196 3.117 2.176 2.031 4.622-.722 1.625-1.027 3.437-1.566 5.316-.668-.25-1.176-.328-1.543-.598-10.59-7.742-21.188-15.48-31.723-23.3-1.277-.95-2.453-2.216-3.27-3.579zm26.297 28.91c-5.043-3.87-10.062-7.777-15.164-11.574-3.308-2.46-5.55-5.586-6.75-10.094 4.29 3.203 8.165 6.262 12.22 9.074 3.585 2.489 7.402 4.645 11.046 7.051 2.524 1.668 4.954 3.489 7.368 5.317.332.25.554 1 .441 1.422-.383 1.425-.934 2.8-1.59 4.668-2.664-2.063-5.11-3.977-7.57-5.864zm-13.73-4.758c.196-.218.395-.437.59-.656 2.97 2.094 5.938 4.188 8.903 6.285 3.367 2.38 6.761 4.735 10.082 7.188.437.324.8 1.215.68 1.723-.298 1.253-.887 2.441-1.497 3.992-7.004-5.864-13.199-11.887-18.758-18.531zm9.415 15.184c2.945 1.852 5.507 3.364 7.93 5.075.413.289.39 1.445.292 2.164-.14 1.027-.535 2.027-.816 3.035-.246.02-.488.043-.735.062-2.132-3.3-4.257-6.601-6.671-10.336z"/></g></g></svg>