<svg fill="currentColor" viewBox="0 0 128 128" xmlns="http://www.w3.org/2000/svg"><path d="M64 25.332a2.669 2.669 0 0 1-2.668-2.668v-2.668a2.669 2.669 0 0 1 5.336 0v2.668A2.667 2.667 0 0 1 64 25.332zm-22.73 7.387a2.67 2.67 0 0 0 .594-3.727l-1.567-2.156a2.667 2.667 0 0 0-4.316 3.133l1.566 2.156a2.662 2.662 0 0 0 3.723.594zM27.227 52.05a2.663 2.663 0 0 0-1.715-3.36l-2.535-.824a2.669 2.669 0 0 0-3.36 1.711 2.663 2.663 0 0 0 1.715 3.36s3.086.956 3.36.956a2.67 2.67 0 0 0 2.535-1.843zm-4.25 28.082 2.535-.825a2.668 2.668 0 0 0-1.644-5.074l-2.536.825a2.668 2.668 0 0 0 .82 5.203c.27 0 .552-.043.825-.13zm17.32 21.03 1.566-2.155a2.675 2.675 0 0 0-.59-3.727 2.666 2.666 0 0 0-3.726.59l-1.566 2.156a2.675 2.675 0 0 0 .59 3.727 2.657 2.657 0 0 0 1.566.507c.824 0 1.637-.379 2.16-1.097zM66.668 108v-2.668A2.667 2.667 0 0 0 64 102.664a2.667 2.667 0 0 0-2.668 2.668V108A2.667 2.667 0 0 0 64 110.668 2.667 2.667 0 0 0 66.668 108zm24.762-6.246a2.663 2.663 0 0 0 .59-3.723l-1.567-2.156a2.666 2.666 0 0 0-4.312 3.132l1.566 2.157a2.653 2.653 0 0 0 2.16 1.097 2.67 2.67 0 0 0 1.567-.511zm16.953-23.333a2.665 2.665 0 0 0-1.715-3.359l-2.535-.824a2.666 2.666 0 1 0-1.645 5.074s3.086.953 3.36.953a2.662 2.662 0 0 0 2.535-1.844zm-4.25-24.655 2.535-.825a2.666 2.666 0 1 0-1.645-5.07l-2.535.824a2.67 2.67 0 0 0-1.714 3.36 2.67 2.67 0 0 0 2.535 1.843c.273 0 .55-.043.824-.132zM90.449 32.129l1.566-2.157a2.668 2.668 0 0 0-.59-3.726 2.662 2.662 0 0 0-3.722.59l-1.567 2.156a2.668 2.668 0 1 0 4.317 3.136zm8.418 31.87c0-19.226-15.641-34.866-34.867-34.866S29.133 44.773 29.133 64 44.774 98.867 64 98.867 98.867 83.225 98.867 64zm-5.332 0c0 16.286-13.25 29.536-29.535 29.536S34.465 80.285 34.465 64 47.715 34.469 64 34.469s29.535 13.25 29.535 29.53z"/></svg>