<?xml version="1.0" encoding="UTF-8"?>
<svg fill="currentColor" version="1.1" viewBox="0 0 128 128" xmlns="http://www.w3.org/2000/svg">
 <path d="m71.93 64.383 33.938-33.934c2.0859-2.0859 2.0898-5.4688 0.007812-7.5508-2.0977-2.0977-5.4648-2.0781-7.5508 0.007812l-33.938 33.934-33.938-33.934c-2.0859-2.0859-5.4688-2.0898-7.5508-0.007812-2.0977 2.0977-2.0781 5.4648 0.007812 7.5508l33.938 33.934-33.938 33.93c-2.0859 2.0859-2.0898 5.4688-0.007812 7.5547 2.0977 2.0938 5.4648 2.0781 7.5508-0.011719l33.938-33.93 33.938 33.93c2.0859 2.0859 5.4688 2.0938 7.5508 0.011719 2.0977-2.0977 2.0781-5.4648-0.007812-7.5547z" fill-rule="evenodd"/>
</svg>
