<svg fill="currentColor" viewBox="0 0 128 128" xmlns="http://www.w3.org/2000/svg"><path d="m98.523 57.051-8.813-4.633-8.812 4.633a2.667 2.667 0 0 1-3.867-2.813l1.683-9.812-7.129-6.95a2.67 2.67 0 0 1-.675-2.734 2.677 2.677 0 0 1 2.152-1.816l9.848-1.43 4.406-8.926c.894-1.82 3.887-1.82 4.781 0l4.406 8.926 9.848 1.43a2.666 2.666 0 0 1 2.152 1.816c.313.965.051 2.024-.675 2.735l-7.13 6.949 1.684 9.812a2.67 2.67 0 0 1-1.058 2.61c-.465.336-1.5.86-2.809.203zm-7.574-10.004 5.27 2.77-1.005-5.868a2.665 2.665 0 0 1 .766-2.36l4.262-4.155-5.89-.856a2.655 2.655 0 0 1-2.009-1.46l-2.636-5.337-2.637 5.336a2.664 2.664 0 0 1-2.008 1.461l-5.89.856 4.261 4.156c.63.613.914 1.496.766 2.36l-1.004 5.867 5.27-2.77c.675-.375 1.652-.46 2.48 0zm-34.816 59.742c-20.277 0-36.773-16.496-36.773-36.773s16.496-36.773 36.773-36.773c.222 0 2.234-.16 3.113 1.508.461.875.488 1.945-.082 2.75-2.785 3.906-4.262 8.496-4.262 13.27 0 12.637 10.277 22.914 22.914 22.914a22.93 22.93 0 0 0 10.98-2.801 2.666 2.666 0 0 1 3.938 2.586c-1.774 18.996-17.508 33.324-36.602 33.324zM52.23 38.816C36.726 40.742 24.691 54 24.691 70.015c0 17.336 14.105 31.441 31.441 31.441 14.73 0 27.125-9.973 30.516-23.855a28.318 28.318 0 0 1-8.832 1.418c-15.574 0-28.246-12.672-28.246-28.246 0-4.172.91-8.23 2.665-11.953z"/></svg>