<?xml version="1.0" encoding="UTF-8"?>
<svg fill="currentColor" version="1.1" viewBox="0 0 128 128" xmlns="http://www.w3.org/2000/svg">
 <g>
  <path d="m102.4 35.84h-76.797c-2.1211 0-3.8398-1.7188-3.8398-3.8398s1.7188-3.8398 3.8398-3.8398h76.797c2.1211 0 3.8398 1.7188 3.8398 3.8398s-1.7188 3.8398-3.8398 3.8398z"/>
  <path d="m102.4 67.84h-76.797c-2.1211 0-3.8398-1.7188-3.8398-3.8398s1.7188-3.8398 3.8398-3.8398h76.797c2.1211 0 3.8398 1.7188 3.8398 3.8398s-1.7188 3.8398-3.8398 3.8398z"/>
  <path d="m102.4 99.84h-76.797c-2.1211 0-3.8398-1.7188-3.8398-3.8398s1.7188-3.8398 3.8398-3.8398h76.797c2.1211 0 3.8398 1.7188 3.8398 3.8398s-1.7188 3.8398-3.8398 3.8398z"/>
 </g>
</svg>
