<svg xmlns="http://www.w3.org/2000/svg" fill="currentColor" viewBox="0 0 512 512"><path d="M107.52 343.04c0 16.297 6.473 31.922 17.996 43.445s27.148 17.996 43.445 17.996h174.08c16.297 0 31.922-6.473 43.445-17.996s17.996-27.148 17.996-43.445V168.96c0-16.297-6.473-31.922-17.996-43.445s-27.148-17.996-43.445-17.996h-174.08c-16.297 0-31.922 6.473-43.445 17.996s-17.996 27.148-17.996 43.445zm256-165.58v165.58a20.487 20.487 0 0 1-5.996 14.484 20.49 20.49 0 0 1-14.484 5.996H177.46zm-215.04-8.5a20.487 20.487 0 0 1 5.996-14.484 20.49 20.49 0 0 1 14.484-5.996h165.58L148.48 334.54z"/></svg>